<?xml version="1.0" encoding="utf-8"?>
<!-- Generator: Adobe Illustrator 25.0.0, SVG Export Plug-In . SVG Version: 6.00 Build 0)  -->
<svg version="1.1" id="Layer_1" xmlns="http://www.w3.org/2000/svg" xmlns:xlink="http://www.w3.org/1999/xlink" x="0px" y="0px"
	 viewBox="0 0 430.8 201.4" style="enable-background:new 0 0 430.8 201.4;" xml:space="preserve">
<style type="text/css">
	.st0{fill:#E9162B;}
	.st1{fill:#3E2A5E;}
	.st2{fill:#CAA637;}
	.st3{fill:#3F3F3F;}
</style>
<path class="st0" d="M430.9,0L311.3,119.5h100.5c10.5,0,19-8.5,19-19l0,0V0z"/>
<path class="st1" d="M311.3,119.5l-81.9,81.9v-62.9c0-10.5,8.5-19,19-19H311.3z"/>
<path class="st2" d="M314.3,117.9"/>
<polygon class="st3" points="18.6,71.8 45.1,71.8 45.1,57.6 18.6,57.6 18.6,40.8 50.9,40.8 50.9,26.7 3.1,26.7 3.1,98.8 18.6,98.8
	"/>
<path class="st3" d="M113.4,71.6c0.1-7.4-2.8-14.5-8.1-19.6c-5.6-5.6-13.2-8.8-21.1-8.7c-7.8-0.1-15.4,3-20.9,8.5
	C58,57,55.1,64.2,55.2,71.6c-0.1,7.5,2.9,14.7,8.2,20c5.5,5.5,13,8.6,20.7,8.4h0.6c7.7-0.1,15.1-3.2,20.5-8.6
	C110.6,86.2,113.5,79.1,113.4,71.6z M97.6,71.7c0,8-5.7,13.9-13.3,13.9s-13.3-5.9-13.3-13.9c0-8.3,5.5-14.2,13.3-14.2
	C91.8,57.6,97.6,63.7,97.6,71.7L97.6,71.7z"/>
<path class="st3" d="M157.5,58.3V44.6l-0.4-0.1c-1.6-0.5-3.2-0.7-4.9-0.7c-5.4,0-10.5,2.2-14.2,6.2v-5.5h-14.4v54.4h15.6V71.7
	c0-8.5,5-13.4,13.8-13.4H157.5z"/>
<path class="st3" d="M202.3,76c0,5.7-3.9,9.7-9.4,9.7c-5.8,0-9.6-3.9-9.6-9.7V44.5h-15.6v30.4c0,14.9,10.4,25.3,25.2,25.3
	c14.5,0,25-10.6,25-25.3V44.5h-15.6V76z"/>
<path class="st3" d="M290.7,43.3c-6.7-0.1-13.1,2.5-17.7,7.4c-3.7-4.9-9-7.4-15.9-7.4c-5.4-0.2-10.6,1.7-14.6,5.2v-4h-14.4v54.4
	h15.5V67.3c0-6.1,3.6-9.9,9.3-9.9c5.5,0,9,3.9,9,9.9v31.5h15.5V67c0-5.6,3.8-9.5,9.3-9.5s9,3.9,9,9.9v31.5h15.5V65.2
	C311.3,51.9,303.2,43.3,290.7,43.3z"/>
<path class="st3" d="M38.2,115.1C28,115,18.2,119,11,126.2c-14.5,14.5-14.5,38,0,52.5c0,0,0,0,0,0C18.2,186,28,190,38.3,189.8H39
	c10.1-0.1,19.7-4.1,26.8-11.2c14.5-14.4,14.5-37.7,0.2-52.2c-0.1-0.1-0.1-0.1-0.2-0.2C58.4,119,48.5,115,38.2,115.1z M60.7,152.5
	c0,13.3-9.4,22.9-22.3,22.9S16,165.7,16,152.5s9.4-22.9,22.3-22.9C51.1,129.6,60.7,139.4,60.7,152.5z"/>
<path class="st3" d="M116.5,133c-5.5-0.1-10.9,1.8-15.1,5.4v-4.2H86.9v54.3h15.6v-31.6c0-5.8,4-9.8,9.6-9.8s9.4,4,9.4,9.8v31.6H137
	v-33.5C137,141.6,128.9,133,116.5,133z"/>
<path class="st3" d="M175.8,133c-15.5-0.2-28.2,12.1-28.4,27.6c0,0.3,0,0.6,0,0.8c-0.2,7.4,2.8,14.6,8.1,19.9
	c5.6,5.6,13.1,8.6,21,8.6h0.6c8,0,15.6-2.9,21.7-8.1l0.3-0.3l-6.6-10.8l-0.4,0.3c-4.1,3.3-9.3,5.2-14.6,5.3
	c-7.3,0-12.5-3.5-14.3-9.6h37.1l0.1-0.4c0.6-2.7,1-5.4,1-8.1C201.4,143.9,190.4,133,175.8,133z M163.2,155.5c1.7-6,6.4-9.8,12.1-9.8
	c6.2,0,10.7,4,11,9.8H163.2z"/>
</svg>
