<svg viewBox="0 0 430.8 201.4" xmlns="http://www.w3.org/2000/svg"><path d="m430.9 0-119.6 119.5h100.5c10.5 0 19-8.5 19-19v-100.5z" fill="#e9162b"/><path d="m311.3 119.5-81.9 81.9v-62.9c0-10.5 8.5-19 19-19z" fill="#3e2a5e"/><g fill="#3f3f3f"><path d="m18.6 71.8h26.5v-14.2h-26.5v-16.8h32.3v-14.1h-47.8v72.1h15.5z"/><path d="m113.4 71.6c.1-7.4-2.8-14.5-8.1-19.6-5.6-5.6-13.2-8.8-21.1-8.7-7.8-.1-15.4 3-20.9 8.5-5.3 5.2-8.2 12.4-8.1 19.8-.1 7.5 2.9 14.7 8.2 20 5.5 5.5 13 8.6 20.7 8.4h.6c7.7-.1 15.1-3.2 20.5-8.6 5.4-5.2 8.3-12.3 8.2-19.8zm-15.8.1c0 8-5.7 13.9-13.3 13.9s-13.3-5.9-13.3-13.9c0-8.3 5.5-14.2 13.3-14.2 7.5.1 13.3 6.2 13.3 14.2z"/><path d="m157.5 58.3v-13.7l-.4-.1c-1.6-.5-3.2-.7-4.9-.7-5.4 0-10.5 2.2-14.2 6.2v-5.5h-14.4v54.4h15.6v-27.2c0-8.5 5-13.4 13.8-13.4z"/><path d="m202.3 76c0 5.7-3.9 9.7-9.4 9.7-5.8 0-9.6-3.9-9.6-9.7v-31.5h-15.6v30.4c0 14.9 10.4 25.3 25.2 25.3 14.5 0 25-10.6 25-25.3v-30.4h-15.6z"/><path d="m290.7 43.3c-6.7-.1-13.1 2.5-17.7 7.4-3.7-4.9-9-7.4-15.9-7.4-5.4-.2-10.6 1.7-14.6 5.2v-4h-14.4v54.4h15.5v-31.6c0-6.1 3.6-9.9 9.3-9.9 5.5 0 9 3.9 9 9.9v31.5h15.5v-31.8c0-5.6 3.8-9.5 9.3-9.5s9 3.9 9 9.9v31.5h15.5v-33.7c.1-13.3-8-21.9-20.5-21.9z"/><path d="m38.2 115.1c-10.2-.1-20 3.9-27.2 11.1-14.5 14.5-14.5 38 0 52.5 7.2 7.3 17 11.3 27.3 11.1h.7c10.1-.1 19.7-4.1 26.8-11.2 14.5-14.4 14.5-37.7.2-52.2-.1-.1-.1-.1-.2-.2-7.4-7.2-17.3-11.2-27.6-11.1zm22.5 37.4c0 13.3-9.4 22.9-22.3 22.9s-22.4-9.7-22.4-22.9 9.4-22.9 22.3-22.9c12.8 0 22.4 9.8 22.4 22.9z"/><path d="m116.5 133c-5.5-.1-10.9 1.8-15.1 5.4v-4.2h-14.5v54.3h15.6v-31.6c0-5.8 4-9.8 9.6-9.8s9.4 4 9.4 9.8v31.6h15.5v-33.5c0-13.4-8.1-22-20.5-22z"/><path d="m175.8 133c-15.5-.2-28.2 12.1-28.4 27.6v.8c-.2 7.4 2.8 14.6 8.1 19.9 5.6 5.6 13.1 8.6 21 8.6h.6c8 0 15.6-2.9 21.7-8.1l.3-.3-6.6-10.8-.4.3c-4.1 3.3-9.3 5.2-14.6 5.3-7.3 0-12.5-3.5-14.3-9.6h37.1l.1-.4c.6-2.7 1-5.4 1-8.1 0-14.3-11-25.2-25.6-25.2zm-12.6 22.5c1.7-6 6.4-9.8 12.1-9.8 6.2 0 10.7 4 11 9.8z"/></g></svg>