<svg xmlns="http://www.w3.org/2000/svg" xmlns:xlink="http://www.w3.org/1999/xlink"><defs><style>
    .sprite-symbol-usage {display: none;}
    .sprite-symbol-usage:target {display: inline;}
  </style><symbol viewBox="0 0 19 12" id="arrow"><path d="m2.3 12 7.5-7.5 7.5 7.5 2.3-2.3L9.9 0 .2 9.7 2.5 12z" /></symbol><symbol viewBox="0 0 24 24" id="facebook"><path d="M19.5 0c1.24 0 2.3.44 3.18 1.32S24 3.26 24 4.5v15c0 1.24-.44 2.3-1.32 3.18S20.74 24 19.5 24h-2.938v-9.297h3.11l.469-3.625h-3.578V8.766c0-.584.122-1.021.367-1.313.244-.292.721-.437 1.43-.437L20.265 7V3.766c-.657-.094-1.584-.141-2.782-.141-1.416 0-2.55.417-3.398 1.25s-1.274 2.01-1.274 3.531v2.672H9.688v3.625h3.124V24H4.5c-1.24 0-2.3-.44-3.18-1.32S0 20.74 0 19.5v-15c0-1.24.44-2.3 1.32-3.18S3.26 0 4.5 0z" /></symbol><symbol viewBox="0 0 24 24" id="linkedin"><path d="M3.703 20.094h3.61V9.25h-3.61zM7.547 5.906c-.01-.541-.198-.99-.563-1.343s-.849-.532-1.453-.532-1.096.177-1.476.532-.57.802-.57 1.343c0 .532.184.977.554 1.336s.852.54 1.445.54H5.5c.615 0 1.11-.18 1.484-.54.375-.36.563-.804.563-1.336zm5.36 4.873V9.25h-3.61c.031.688.031 4.302 0 10.844h3.61V14.03c0-.396.036-.687.109-.875.156-.364.39-.674.703-.93s.698-.382 1.156-.382c1.208 0 1.813.817 1.813 2.453v5.797h3.609v-6.219c0-1.604-.38-2.818-1.14-3.64C18.395 9.41 17.39 9 16.14 9c-1.398 0-2.476.593-3.235 1.779zM24 4.5v15c0 1.24-.44 2.3-1.32 3.18S20.74 24 19.5 24h-15c-1.24 0-2.3-.44-3.18-1.32S0 20.74 0 19.5v-15c0-1.24.44-2.3 1.32-3.18S3.26 0 4.5 0h15c1.24 0 2.3.44 3.18 1.32S24 3.26 24 4.5z" /></symbol><symbol viewBox="0 0 24 24" id="twitter"><path d="M20 7.531a6.951 6.951 0 0 1-1.89.532c.708-.417 1.192-1.027 1.453-1.829a6.525 6.525 0 0 1-2.094.797C16.833 6.344 16.036 6 15.079 6c-.907 0-1.68.32-2.321.96s-.961 1.415-.961 2.321c0 .302.026.552.078.75-1.344-.073-2.604-.411-3.781-1.015s-2.177-1.412-3-2.422A3.25 3.25 0 0 0 4.64 8.25c0 1.188.474 2.099 1.421 2.734-.49-.01-1.01-.145-1.562-.406v.031c0 .782.26 1.477.781 2.086s1.162.987 1.922 1.133a3.048 3.048 0 0 1-.797.125c-.135 0-.338-.02-.61-.062.22.656.608 1.198 1.165 1.625s1.19.645 1.898.656c-1.208.937-2.567 1.406-4.078 1.406-.27 0-.531-.015-.781-.047A9.205 9.205 0 0 0 9.031 19c1.167 0 2.26-.185 3.281-.555s1.896-.864 2.626-1.484 1.356-1.333 1.882-2.14a9.43 9.43 0 0 0 1.555-5.165c0-.187-.005-.328-.016-.422A6.377 6.377 0 0 0 20 7.531zM24 4.5v15c0 1.24-.44 2.3-1.32 3.18S20.74 24 19.5 24h-15c-1.24 0-2.3-.44-3.18-1.32S0 20.74 0 19.5v-15c0-1.24.44-2.3 1.32-3.18S3.26 0 4.5 0h15c1.24 0 2.3.44 3.18 1.32S24 3.26 24 4.5z" /></symbol></defs><use id="arrow-usage" xlink:href="#arrow" class="sprite-symbol-usage" /><use id="facebook-usage" xlink:href="#facebook" class="sprite-symbol-usage" /><use id="linkedin-usage" xlink:href="#linkedin" class="sprite-symbol-usage" /><use id="twitter-usage" xlink:href="#twitter" class="sprite-symbol-usage" /></svg>