<svg viewBox="0 0 24 24" xmlns="http://www.w3.org/2000/svg"><path d="m3.703125 20.09375h3.609375v-10.84375h-3.609375zm3.84375-14.1875c-.01041672-.54166937-.19791484-.98958156-.5625-1.34375s-.84895531-.53125-1.453125-.53125-1.09635227.17708156-1.4765625.53125-.5703125.80208063-.5703125 1.34375c0 .53125266.18489398.9765607.5546875 1.3359375s.85155953.5390625 1.4453125.5390625h.015625c.61458641 0 1.10937313-.1796857 1.484375-.5390625.37500188-.3593768.5625-.80468484.5625-1.3359375zm5.359375 4.872421v-1.528671h-3.609375c.03125016.68750344.03125016 4.3020506 0 10.84375h3.609375v-6.0625c0-.3958353.036458-.6874991.109375-.875.1562508-.3645852.3906234-.6744779.703125-.9296875s.6979144-.3828125 1.15625-.3828125c1.2083394 0 1.8125.8177002 1.8125 2.453125v5.796875h3.609375v-6.21875c0-1.6041747-.3802045-2.8177042-1.140625-3.640625-.7604205-.82292078-1.7656188-1.234375-3.015625-1.234375-1.3973807 0-2.4754953.5928845-3.234375 1.778671zm11.09375-6.278671v15c0 1.2395895-.4400998 2.2994748-1.3203125 3.1796875s-1.940098 1.3203125-3.1796875 1.3203125h-15c-1.23958953 0-2.29947477-.4400998-3.1796875-1.3203125s-1.3203125-1.940098-1.3203125-3.1796875v-15c0-1.23958953.44009977-2.29947477 1.3203125-3.1796875s1.94009797-1.3203125 3.1796875-1.3203125h15c1.2395895 0 2.2994748.44009977 3.1796875 1.3203125s1.3203125 1.94009797 1.3203125 3.1796875z"/></svg>