<svg id="Layer_1" data-name="Layer 1" xmlns="http://www.w3.org/2000/svg" width="52" height="52" viewBox="0 0 52 52"><defs><style>.cls-1{fill:#ffc5c2;}</style></defs><title>messages-error</title><g id="Page-1"><g id="messages-warning"><path id="Shape" class="cls-1" d="M51.51,46.09l-22.26-44A4,4,0,0,0,27.88.56a3.44,3.44,0,0,0-3.76,0,4,4,0,0,0-1.37,1.53L.49,46.09A4,4,0,0,0,.55,50,3.82,3.82,0,0,0,1.9,51.47,3.45,3.45,0,0,0,3.74,52H48.26a3.45,3.45,0,0,0,1.84-.53A3.82,3.82,0,0,0,51.45,50,4,4,0,0,0,51.51,46.09ZM29.71,43a1,1,0,0,1-.27.73.88.88,0,0,1-.66.3H23.22a.85.85,0,0,1-.65-.3,1,1,0,0,1-.28-.73V37a1,1,0,0,1,.28-.73.85.85,0,0,1,.65-.3h5.56a.88.88,0,0,1,.66.3,1,1,0,0,1,.27.73V43Zm-.06-11.69a.72.72,0,0,1-.3.52,1.16,1.16,0,0,1-.68.2H23.3a1.19,1.19,0,0,1-.69-.2.63.63,0,0,1-.29-.52L21.83,17a.77.77,0,0,1,.29-.66,1.11,1.11,0,0,1,.69-.34h6.38a1.06,1.06,0,0,1,.69.34.7.7,0,0,1,.29.6Z"/></g></g></svg>