<svg id="Layer_1" data-name="Layer 1" xmlns="http://www.w3.org/2000/svg" viewBox="0 0 22.14 22.07"><title>mobile-search-white</title><path d="M21.3,18.7l-5.2-4.4a2.29,2.29,0,0,0-1.6-.7,8.33,8.33,0,0,0,2-5.4A8.17,8.17,0,0,0,8.3,0a8.3,8.3,0,0,0,.1,16.6,8.2,8.2,0,0,0,5.4-2,2.47,2.47,0,0,0,.7,1.6l4.4,5.2a2,2,0,0,0,2.8.2,1.87,1.87,0,0,0-.2-2.8Zm-13-4.9A5.55,5.55,0,0,1,2.8,8.3,5.55,5.55,0,0,1,8.3,2.8a5.55,5.55,0,0,1,5.5,5.5A5.55,5.55,0,0,1,8.3,13.8Z" transform="translate(-0.1 0)" style="fill:#fff"/></svg>