<svg xmlns="http://www.w3.org/2000/svg" xmlns:xlink="http://www.w3.org/1999/xlink"><defs><style>
    .sprite-symbol-usage {display: none;}
    .sprite-symbol-usage:target {display: inline;}
  </style><symbol viewBox="0 0 448 512" id="angle"><path d="M201.4 137.4c12.5-12.5 32.8-12.5 45.3 0l160 160c12.5 12.5 12.5 32.8 0 45.3s-32.8 12.5-45.3 0L224 205.3 86.6 342.6c-12.5 12.5-32.8 12.5-45.3 0s-12.5-32.8 0-45.3l160-160z" /></symbol><symbol viewBox="0 0 448 512" id="angles"><path d="M246.6 41.4c-12.5-12.5-32.8-12.5-45.3 0l-160 160c-12.5 12.5-12.5 32.8 0 45.3s32.8 12.5 45.3 0L224 109.3l137.4 137.3c12.5 12.5 32.8 12.5 45.3 0s12.5-32.8 0-45.3l-160-160zm160 352-160-160c-12.5-12.5-32.8-12.5-45.3 0l-160 160c-12.5 12.5-12.5 32.8 0 45.3s32.8 12.5 45.3 0L224 301.3l137.4 137.3c12.5 12.5 32.8 12.5 45.3 0s12.5-32.8 0-45.3z" /></symbol><symbol viewBox="0 0 384 512" id="arrow"><path d="M214.6 41.4c-12.5-12.5-32.8-12.5-45.3 0l-160 160c-12.5 12.5-12.5 32.8 0 45.3s32.8 12.5 45.3 0L160 141.2V448c0 17.7 14.3 32 32 32s32-14.3 32-32V141.2l105.4 105.4c12.5 12.5 32.8 12.5 45.3 0s12.5-32.8 0-45.3l-160-160z" /></symbol><symbol viewBox="0 0 384 512" id="arrow-long"><path d="M214.6 9.4c-12.5-12.5-32.8-12.5-45.3 0l-128 128c-12.5 12.5-12.5 32.8 0 45.3s32.8 12.5 45.3 0l73.4-73.4V480c0 17.7 14.3 32 32 32s32-14.3 32-32V109.3l73.4 73.4c12.5 12.5 32.8 12.5 45.3 0s12.5-32.8 0-45.3l-128-128z" /></symbol><symbol viewBox="0 0 448 512" id="bars"><path d="M0 96c0-17.7 14.3-32 32-32h384c17.7 0 32 14.3 32 32s-14.3 32-32 32H32c-17.7 0-32-14.3-32-32zm0 160c0-17.7 14.3-32 32-32h384c17.7 0 32 14.3 32 32s-14.3 32-32 32H32c-17.7 0-32-14.3-32-32zm448 160c0 17.7-14.3 32-32 32H32c-17.7 0-32-14.3-32-32s14.3-32 32-32h384c17.7 0 32 14.3 32 32z" /></symbol><symbol viewBox="0 0 448 512" id="calendar"><path d="M96 32v32H48C21.5 64 0 85.5 0 112v48h448v-48c0-26.5-21.5-48-48-48h-48V32c0-17.7-14.3-32-32-32s-32 14.3-32 32v32H160V32c0-17.7-14.3-32-32-32S96 14.3 96 32zm352 160H0v272c0 26.5 21.5 48 48 48h352c26.5 0 48-21.5 48-48z" /></symbol><symbol viewBox="0 0 320 512" id="caret"><path d="M182.6 137.4c-12.5-12.5-32.8-12.5-45.3 0l-128 128c-9.2 9.2-11.9 22.9-6.9 34.9S19 320.1 32 320.1h256c12.9 0 24.6-7.8 29.6-19.8s2.2-25.7-6.9-34.9l-128-128z" /></symbol><symbol viewBox="0 0 448 512" id="check"><path d="M438.6 105.4c12.5 12.5 12.5 32.8 0 45.3l-256 256c-12.5 12.5-32.8 12.5-45.3 0l-128-128c-12.5-12.5-12.5-32.8 0-45.3s32.8-12.5 45.3 0L160 338.7l233.4-233.3c12.5-12.5 32.8-12.5 45.3 0z" /></symbol><symbol viewBox="0 0 512 512" id="chevron"><path d="M233.4 105.4c12.5-12.5 32.8-12.5 45.3 0l192 192c12.5 12.5 12.5 32.8 0 45.3s-32.8 12.5-45.3 0L256 173.3 86.6 342.6c-12.5 12.5-32.8 12.5-45.3 0s-12.5-32.8 0-45.3l192-192z" /></symbol><symbol viewBox="0 0 512 512" id="download"><path d="M288 32c0-17.7-14.3-32-32-32s-32 14.3-32 32v242.7l-73.4-73.4c-12.5-12.5-32.8-12.5-45.3 0s-12.5 32.8 0 45.3l128 128c12.5 12.5 32.8 12.5 45.3 0l128-128c12.5-12.5 12.5-32.8 0-45.3s-32.8-12.5-45.3 0L288 274.7zM64 352c-35.3 0-64 28.7-64 64v32c0 35.3 28.7 64 64 64h384c35.3 0 64-28.7 64-64v-32c0-35.3-28.7-64-64-64H346.5l-45.3 45.3c-25 25-65.5 25-90.5 0L165.5 352zm368 56a24 24 0 1 1 0 48 24 24 0 1 1 0-48z" /></symbol><symbol viewBox="0 0 128 512" id="ellipsis"><path d="M64 360a56 56 0 1 0 0 112 56 56 0 1 0 0-112zm0-160a56 56 0 1 0 0 112 56 56 0 1 0 0-112zm56-104A56 56 0 1 0 8 96a56 56 0 1 0 112 0z" /></symbol><symbol viewBox="0 0 512 512" id="envelope"><path d="M48 64C21.5 64 0 85.5 0 112c0 15.1 7.1 29.3 19.2 38.4l217.6 163.2c11.4 8.5 27 8.5 38.4 0l217.6-163.2c12.1-9.1 19.2-23.3 19.2-38.4 0-26.5-21.5-48-48-48zM0 176v208c0 35.3 28.7 64 64 64h384c35.3 0 64-28.7 64-64V176L294.4 339.2a63.9 63.9 0 0 1-76.8 0z" /></symbol><symbol viewBox="0 0 320 512" id="facebook"><path d="m279.14 288 14.22-92.66h-88.91v-60.13c0-25.35 12.42-50.06 52.24-50.06h40.42V6.26S260.43 0 225.36 0c-73.22 0-121.08 44.38-121.08 124.72v70.62H22.89V288h81.39v224h100.17V288z" /></symbol><symbol viewBox="0 0 384 512" id="file"><path d="M0 64C0 28.7 28.7 0 64 0h160v128c0 17.7 14.3 32 32 32h128v288c0 35.3-28.7 64-64 64H64c-35.3 0-64-28.7-64-64zm384 64H256V0z" /></symbol><symbol viewBox="0 0 448 512" id="instagram"><path d="M224.1 141c-63.6 0-114.9 51.3-114.9 114.9s51.3 114.9 114.9 114.9S339 319.5 339 255.9 287.7 141 224.1 141zm0 189.6c-41.1 0-74.7-33.5-74.7-74.7s33.5-74.7 74.7-74.7 74.7 33.5 74.7 74.7-33.6 74.7-74.7 74.7zm146.4-194.3c0 14.9-12 26.8-26.8 26.8-14.9 0-26.8-12-26.8-26.8s12-26.8 26.8-26.8 26.8 12 26.8 26.8zm76.1 27.2c-1.7-35.9-9.9-67.7-36.2-93.9-26.2-26.2-58-34.4-93.9-36.2-37-2.1-147.9-2.1-184.9 0-35.8 1.7-67.6 9.9-93.9 36.1s-34.4 58-36.2 93.9c-2.1 37-2.1 147.9 0 184.9 1.7 35.9 9.9 67.7 36.2 93.9s58 34.4 93.9 36.2c37 2.1 147.9 2.1 184.9 0 35.9-1.7 67.7-9.9 93.9-36.2 26.2-26.2 34.4-58 36.2-93.9 2.1-37 2.1-147.8 0-184.8zM398.8 388c-7.8 19.6-22.9 34.7-42.6 42.6-29.5 11.7-99.5 9-132.1 9s-102.7 2.6-132.1-9c-19.6-7.8-34.7-22.9-42.6-42.6-11.7-29.5-9-99.5-9-132.1s-2.6-102.7 9-132.1c7.8-19.6 22.9-34.7 42.6-42.6 29.5-11.7 99.5-9 132.1-9s102.7-2.6 132.1 9c19.6 7.8 34.7 22.9 42.6 42.6 11.7 29.5 9 99.5 9 132.1s2.7 102.7-9 132.1z" /></symbol><symbol viewBox="0 0 448 512" id="linkedin"><path d="M100.28 448H7.4V148.9h92.88zM53.79 108.1C24.09 108.1 0 83.5 0 53.8a53.79 53.79 0 0 1 107.58 0c0 29.7-24.1 54.3-53.79 54.3zM447.9 448h-92.68V302.4c0-34.7-.7-79.2-48.29-79.2-48.29 0-55.69 37.7-55.69 76.7V448h-92.78V148.9h89.08v40.8h1.3c12.4-23.5 42.69-48.3 87.88-48.3 94 0 111.28 61.9 111.28 142.3V448z" /></symbol><symbol viewBox="0 0 512 512" id="magnifying-glass"><path d="M416 208c0 45.9-14.9 88.3-40 122.7l126.6 126.7c12.5 12.5 12.5 32.8 0 45.3s-32.8 12.5-45.3 0L330.7 376c-34.4 25.2-76.8 40-122.7 40C93.1 416 0 322.9 0 208S93.1 0 208 0s208 93.1 208 208zM208 352a144 144 0 1 0 0-288 144 144 0 1 0 0 288z" /></symbol><symbol viewBox="0 0 448 512" id="minus"><path d="M432 256c0 17.7-14.3 32-32 32H48c-17.7 0-32-14.3-32-32s14.3-32 32-32h352c17.7 0 32 14.3 32 32z" /></symbol><symbol viewBox="0 0 448 512" id="plus"><path d="M256 80c0-17.7-14.3-32-32-32s-32 14.3-32 32v144H48c-17.7 0-32 14.3-32 32s14.3 32 32 32h144v144c0 17.7 14.3 32 32 32s32-14.3 32-32V288h144c17.7 0 32-14.3 32-32s-14.3-32-32-32H256z" /></symbol><symbol viewBox="0 0 448 512" id="rss"><path d="M0 64c0-17.7 14.3-32 32-32 229.8 0 416 186.2 416 416 0 17.7-14.3 32-32 32s-32-14.3-32-32C384 253.6 226.4 96 32 96 14.3 96 0 81.7 0 64zm0 352a64 64 0 1 1 128 0 64 64 0 1 1-128 0zm32-256c159.1 0 288 128.9 288 288 0 17.7-14.3 32-32 32s-32-14.3-32-32c0-123.7-100.3-224-224-224-17.7 0-32-14.3-32-32s14.3-32 32-32z" /></symbol><symbol viewBox="0 0 448 512" id="square"><path d="M0 96c0-35.3 28.7-64 64-64h320c35.3 0 64 28.7 64 64v320c0 35.3-28.7 64-64 64H64c-35.3 0-64-28.7-64-64z" /></symbol><symbol viewBox="0 0 448 512" id="square-check"><path d="M64 32C28.7 32 0 60.7 0 96v320c0 35.3 28.7 64 64 64h320c35.3 0 64-28.7 64-64V96c0-35.3-28.7-64-64-64zm273 177L209 337c-9.4 9.4-24.6 9.4-33.9 0l-64-64c-9.4-9.4-9.4-24.6 0-33.9s24.6-9.4 33.9 0l47 47L303 175c9.4-9.4 24.6-9.4 33.9 0s9.4 24.6 0 33.9z" /></symbol><symbol viewBox="0 0 448 512" id="square-empty"><path d="M384 80c8.8 0 16 7.2 16 16v320c0 8.8-7.2 16-16 16H64c-8.8 0-16-7.2-16-16V96c0-8.8 7.2-16 16-16zM64 32C28.7 32 0 60.7 0 96v320c0 35.3 28.7 64 64 64h320c35.3 0 64-28.7 64-64V96c0-35.3-28.7-64-64-64z" /></symbol><symbol viewBox="0 0 512 512" id="twitter"><path d="M459.37 151.716c.325 4.548.325 9.097.325 13.645 0 138.72-105.583 298.558-298.558 298.558-59.452 0-114.68-17.219-161.137-47.106 8.447.974 16.568 1.299 25.34 1.299 49.055 0 94.213-16.568 130.274-44.832-46.132-.975-84.792-31.188-98.112-72.772 6.498.974 12.995 1.624 19.818 1.624 9.421 0 18.843-1.3 27.614-3.573-48.081-9.747-84.143-51.98-84.143-102.985v-1.299c13.969 7.797 30.214 12.67 47.431 13.319-28.264-18.843-46.781-51.005-46.781-87.391 0-19.492 5.197-37.36 14.294-52.954 51.655 63.675 129.3 105.258 216.365 109.807-1.624-7.797-2.599-15.918-2.599-24.04 0-57.828 46.782-104.934 104.934-104.934 30.213 0 57.502 12.67 76.67 33.137 23.715-4.548 46.456-13.32 66.599-25.34-7.798 24.366-24.366 44.833-46.132 57.827 21.117-2.273 41.584-8.122 60.426-16.243-14.292 20.791-32.161 39.308-52.628 54.253z" /></symbol><symbol viewBox="0 0 448 512" id="vimeo"><path d="M447.8 153.6c-2 43.6-32.4 103.3-91.4 179.1-60.9 79.2-112.4 118.8-154.6 118.8-26.1 0-48.2-24.1-66.3-72.3C100.3 250 85.3 174.3 56.2 174.3c-3.4 0-15.1 7.1-35.2 21.1L0 168.2c51.6-45.3 100.9-95.7 131.8-98.5 34.9-3.4 56.3 20.5 64.4 71.5 28.7 181.5 41.4 208.9 93.6 126.7 18.7-29.6 28.8-52.1 30.2-67.6 4.8-45.9-35.8-42.8-63.3-31 22-72.1 64.1-107.1 126.2-105.1 45.8 1.2 67.5 31.1 64.9 89.4z" /></symbol><symbol viewBox="0 0 384 512" id="xmark"><path d="M342.6 150.6c12.5-12.5 12.5-32.8 0-45.3s-32.8-12.5-45.3 0L192 210.7 86.6 105.4c-12.5-12.5-32.8-12.5-45.3 0s-12.5 32.8 0 45.3L146.7 256 41.4 361.4c-12.5 12.5-12.5 32.8 0 45.3s32.8 12.5 45.3 0L192 301.3l105.4 105.3c12.5 12.5 32.8 12.5 45.3 0s12.5-32.8 0-45.3L237.3 256z" /></symbol><symbol viewBox="0 0 576 512" id="youtube"><path d="M549.655 124.083c-6.281-23.65-24.787-42.276-48.284-48.597C458.781 64 288 64 288 64S117.22 64 74.629 75.486c-23.497 6.322-42.003 24.947-48.284 48.597-11.412 42.867-11.412 132.305-11.412 132.305s0 89.438 11.412 132.305c6.281 23.65 24.787 41.5 48.284 47.821C117.22 448 288 448 288 448s170.78 0 213.371-11.486c23.497-6.321 42.003-24.171 48.284-47.821 11.412-42.867 11.412-132.305 11.412-132.305s0-89.438-11.412-132.305zm-317.51 213.508V175.185l142.739 81.205z" /></symbol></defs><use id="angle-usage" xlink:href="#angle" class="sprite-symbol-usage" /><use id="angles-usage" xlink:href="#angles" class="sprite-symbol-usage" /><use id="arrow-usage" xlink:href="#arrow" class="sprite-symbol-usage" /><use id="arrow-long-usage" xlink:href="#arrow-long" class="sprite-symbol-usage" /><use id="bars-usage" xlink:href="#bars" class="sprite-symbol-usage" /><use id="calendar-usage" xlink:href="#calendar" class="sprite-symbol-usage" /><use id="caret-usage" xlink:href="#caret" class="sprite-symbol-usage" /><use id="check-usage" xlink:href="#check" class="sprite-symbol-usage" /><use id="chevron-usage" xlink:href="#chevron" class="sprite-symbol-usage" /><use id="download-usage" xlink:href="#download" class="sprite-symbol-usage" /><use id="ellipsis-usage" xlink:href="#ellipsis" class="sprite-symbol-usage" /><use id="envelope-usage" xlink:href="#envelope" class="sprite-symbol-usage" /><use id="facebook-usage" xlink:href="#facebook" class="sprite-symbol-usage" /><use id="file-usage" xlink:href="#file" class="sprite-symbol-usage" /><use id="instagram-usage" xlink:href="#instagram" class="sprite-symbol-usage" /><use id="linkedin-usage" xlink:href="#linkedin" class="sprite-symbol-usage" /><use id="magnifying-glass-usage" xlink:href="#magnifying-glass" class="sprite-symbol-usage" /><use id="minus-usage" xlink:href="#minus" class="sprite-symbol-usage" /><use id="plus-usage" xlink:href="#plus" class="sprite-symbol-usage" /><use id="rss-usage" xlink:href="#rss" class="sprite-symbol-usage" /><use id="square-usage" xlink:href="#square" class="sprite-symbol-usage" /><use id="square-check-usage" xlink:href="#square-check" class="sprite-symbol-usage" /><use id="square-empty-usage" xlink:href="#square-empty" class="sprite-symbol-usage" /><use id="twitter-usage" xlink:href="#twitter" class="sprite-symbol-usage" /><use id="vimeo-usage" xlink:href="#vimeo" class="sprite-symbol-usage" /><use id="xmark-usage" xlink:href="#xmark" class="sprite-symbol-usage" /><use id="youtube-usage" xlink:href="#youtube" class="sprite-symbol-usage" /></svg>