<svg height="23.983755" width="22.788084" version="1.1" xmlns="http://www.w3.org/2000/svg" xmlns:dc="http://purl.org/dc/elements/1.1/">
<path fill="#4d8e4d" stroke-linejoin="round" d="m4.1915979,4.3440194a9.7549915,10.288467,0,1,1,-19.5099829,0,9.7549915,10.288467,0,1,1,19.5099829,0z" transform="matrix(1.1253375,0,0,1.1253375,17.653732,7.103693)" stroke="#376637" stroke-linecap="round" stroke-miterlimit="4" stroke-dasharray="none" stroke-width="0.75"/>
<path fill="#fff" d="M18.421911,8.8071377c-1.695762-1.1626836-2.498082-2.1795553-2.498082-2.1795553-3.131603,1.8452408-6.4573362,8.3972236-6.4573362,8.3972236-1.5585866-2.194108-3.1256877-2.806089-3.1256877-2.806089-0.704515,0.941409-1.918895,2.196035-1.918895,2.196035,2.8323955,0.762822,5.2098051,3.562095,5.2098051,3.562095,5.1393758-8.0687297,8.7901958-9.1697093,8.7901958-9.1697093z" fill-rule="evenodd"/>
</svg>
