<svg width="216" height="146" viewBox="0 0 216 146" version="1.1" xmlns="http://www.w3.org/2000/svg"><path d="M162.2 41.6c-5.6-9.6-13.2-17.2-22.8-22.8 -9.6-5.6-20.1-8.4-31.4-8.4 -11.4 0-21.8 2.8-31.4 8.4 -9.6 5.6-17.2 13.2-22.8 22.8C48.2 51.2 45.4 61.6 45.4 73c0 11.4 2.8 21.8 8.4 31.4 5.6 9.6 13.2 17.2 22.8 22.8 9.6 5.6 20.1 8.4 31.4 8.4 11.4 0 21.8-2.8 31.4-8.4 9.6-5.6 17.2-13.2 22.8-22.8 5.6-9.6 8.4-20.1 8.4-31.4C170.6 61.6 167.8 51.2 162.2 41.6zM148.6 63.5l-44.2 44.2c-1 1-2.3 1.5-3.7 1.5 -1.4 0-2.6-0.5-3.7-1.5L67.4 78.2c-1-1-1.5-2.2-1.5-3.7 0-1.5 0.5-2.8 1.5-3.7l7.4-7.3c1-1 2.3-1.5 3.7-1.5s2.6 0.5 3.7 1.5l18.4 18.4 33.2-33.2c1-1 2.3-1.5 3.7-1.5 1.4 0 2.6 0.5 3.7 1.5l7.4 7.3c1 1 1.5 2.2 1.5 3.7C150 61.3 149.6 62.5 148.6 63.5z"/></svg>
