<svg height="21.338011" width="24" version="1.1" xmlns="http://www.w3.org/2000/svg" xmlns:dc="http://purl.org/dc/elements/1.1/">
<path fill="#fcd116" d="M11.493582,0.37982387a1.6200587,1.6172542,0,0,0,-0.809951,0.80853813l-10.12433321,17.383741a1.6200587,1.6172542,0,0,0,-0.202119,0.404007,1.6200587,1.6172542,0,0,0,0,0.606125,1.6200587,1.6172542,0,0,0,0.202119,0.606064,1.6200587,1.6172542,0,0,0,1.01239951,0.808538,1.6200587,1.6172542,0,0,0,0.4051892,0h20.0462185a1.6200587,1.6172542,0,0,0,0.405189,0,1.6200587,1.6172542,0,0,0,1.012399,-0.808538,1.6200587,1.6172542,0,0,0,0.202128,-0.606064,1.6200587,1.6172542,0,0,0,0,-0.606125,1.6200587,1.6172542,0,0,0,-0.202128,-0.404007l-10.124342-17.383741a1.6200587,1.6172542,0,0,0,-1.012444,-0.80853813,1.6200587,1.6172542,0,0,0,-0.809951,0z" fill-rule="nonzero" stroke="#332a05" stroke-miterlimit="4" stroke-dasharray="none" stroke-width="0.65695882"/>
<path fill="#332a05" d="m12.312085,14.724086c0.0192-2.815997,0.096-3.616001,0.4608-5.1199989,0.2688-1.119999,0.3456-1.6160005,0.3456-2.0800001,0-1.023999-0.384001-1.52-1.1712-1.52s-1.1904,0.5120011-1.1904,1.5040001c0,0.4799995,0.0768,0.976001,0.3456,2.096,0.3648,1.5039979,0.4224,2.2560049,0.4608,5.1199989h0.7488m-0.3648,1.280002c-0.671999,0-1.2096,0.448001-1.2096,0.991999,0,0.559999,0.537601,1.008,1.1904,1.008,0.671999,0,1.2096-0.448001,1.2096-1.008,0-0.543998-0.537601-0.991999-1.1904-0.991999"/>
</svg>
