<svg width="216" height="146" viewBox="0 0 216 146" version="1.1" xmlns="http://www.w3.org/2000/svg"><path d="M162.2 41.6c-5.6-9.6-13.2-17.2-22.8-22.8 -9.6-5.6-20.1-8.4-31.4-8.4 -11.4 0-21.8 2.8-31.4 8.4 -9.6 5.6-17.2 13.2-22.8 22.8C48.2 51.2 45.4 61.6 45.4 73c0 11.4 2.8 21.8 8.4 31.4 5.6 9.6 13.2 17.2 22.8 22.8 9.6 5.6 20.1 8.4 31.4 8.4 11.4 0 21.8-2.8 31.4-8.4 9.6-5.6 17.2-13.2 22.8-22.8 5.6-9.6 8.4-20.1 8.4-31.4C170.6 61.6 167.8 51.2 162.2 41.6zM118.4 112c0 0.8-0.2 1.4-0.7 1.9s-1.1 0.8-1.8 0.8H100.3c-0.7 0-1.3-0.3-1.9-0.8 -0.5-0.5-0.8-1.2-0.8-1.9V96.5c0-0.7 0.3-1.3 0.8-1.9 0.5-0.5 1.2-0.8 1.9-0.8h15.6c0.7 0 1.3 0.3 1.8 0.8 0.5 0.5 0.7 1.2 0.7 1.9V112zM118.3 84c-0.1 0.5-0.3 1-0.9 1.4 -0.5 0.4-1.2 0.6-1.9 0.6h-15.1c-0.8 0-1.4-0.2-2-0.6 -0.5-0.4-0.8-0.9-0.8-1.4l-1.4-50.6c0-0.7 0.3-1.1 0.8-1.5 0.5-0.4 1.2-0.7 2-0.7h17.9c0.8 0 1.4 0.2 2 0.7 0.5 0.3 0.8 0.8 0.8 1.5L118.3 84z"/></svg>
